<svg version="1.1" id="Layer_1" xmlns="http://www.w3.org/2000/svg" xmlns:xlink="http://www.w3.org/1999/xlink" x="0px" y="0px"
	 viewBox="0 0 244 28" style="enable-background:new 0 0 244 28;" xml:space="preserve">
<polygon class="st0" points="84.9,1.3 71.3,26.4 74.2,26.4 84.9,6.6 95.6,26.4 98.4,26.4 "/>
<g>
	<path class="st0" d="M81.5,26.4h6.6c0,0,0,0,0,0c0,0,0-0.1,0-0.1c-0.2-0.6-1.2-3.5-2.1-6c0,0,0,0,0,0c0,0,0,0,0,0c0,0,0-0.1,0-0.1
		c0.9-0.5,1.5-1.5,1.5-2.7c0-1.6-1.2-3-2.7-3c0,0,0,0,0,0c0,0,0,0,0,0c-1.5,0-2.7,1.3-2.7,3c0,0.1,0,0.2,0,0.4
		c0.1,1,0.7,1.8,1.5,2.3l0,0c0.1,0,0.1,0.1,0,0.1C83.6,20.8,81.6,26.2,81.5,26.4"/>
</g>
<polygon class="st0" points="29.5,3.7 29.5,26.5 46.3,26.5 46.3,24.3 31.9,24.3 31.9,16.2 46,16.2 46,14 31.9,14 31.9,5.9 46.3,5.9 
	46.3,3.7 "/>
<polygon class="st0" points="66.3,3.7 66.3,14 54.1,14 54.1,3.7 51.8,3.7 51.8,26.5 54.1,26.5 54.1,16.2 66.3,16.2 66.3,26.5 
	68.6,26.5 68.6,3.7 "/>
<g>
	<path class="st0" d="M12.6,14v2.2h9.5c-0.3,1.3-0.7,4.1-3.7,6.4c-1.6,1.2-3.6,1.8-5.6,1.8c-2.6,0-4.8-0.9-6.6-2.8
		c-1.8-1.8-2.7-4.1-2.7-6.6c0-2.6,0.9-4.8,2.7-6.6c1.8-1.8,4-2.7,6.6-2.7c2,0,3.7,0.5,5.3,1.6c1.2,0.8,2.2,1.9,2.9,3.2h2.6
		c-0.8-2-2.1-3.6-3.8-4.9c-2.1-1.5-4.5-2.3-7.2-2.3c-1.5,0-2.9,0.3-4.3,0.9C6.7,4.8,5.5,5.7,4.4,6.7C3.4,7.8,2.5,9,1.9,10.5
		C1.3,11.9,1,13.4,1,15c0,1.6,0.3,3.1,0.9,4.6c0.6,1.4,1.5,2.7,2.5,3.7c1.1,1.1,2.3,1.9,3.7,2.5c1.4,0.6,2.9,0.9,4.6,0.9
		c2.8,0,5.3-0.9,7.5-2.7c3.6-2.9,4.2-6.7,4.3-8.4L24.4,14H12.6z"/>
	<path class="st0" d="M101.6,24.8h0.2c0,0,0.1,0,0.1,0c0,0,0.1,0,0.1,0c0,0,0,0,0.1-0.1c0,0,0-0.1,0-0.1c0,0,0-0.1,0-0.1
		c0,0,0,0-0.1-0.1c0,0-0.1,0-0.1,0c0,0-0.1,0-0.1,0h-0.2V24.8z M101.2,24.1h0.5c0.1,0,0.2,0,0.3,0c0.1,0,0.2,0,0.2,0.1
		c0.1,0,0.1,0.1,0.2,0.1c0,0.1,0.1,0.1,0.1,0.2c0,0.1,0,0.1,0,0.2c0,0.1-0.1,0.1-0.1,0.2c0,0-0.1,0.1-0.1,0.1c0,0-0.1,0-0.1,0
		l0.4,0.6h-0.4l-0.4-0.6h-0.1v0.6h-0.4V24.1z M100.7,24.9c0,0.2,0,0.3,0.1,0.5c0.1,0.1,0.1,0.3,0.2,0.4c0.1,0.1,0.2,0.2,0.4,0.3
		s0.3,0.1,0.5,0.1s0.3,0,0.5-0.1c0.1-0.1,0.3-0.1,0.4-0.3c0.1-0.1,0.2-0.2,0.2-0.4c0.1-0.1,0.1-0.3,0.1-0.5c0-0.2,0-0.3-0.1-0.5
		c-0.1-0.1-0.1-0.3-0.2-0.4c-0.1-0.1-0.2-0.2-0.4-0.3c-0.1-0.1-0.3-0.1-0.5-0.1s-0.3,0-0.5,0.1c-0.1,0.1-0.3,0.1-0.4,0.3
		c-0.1,0.1-0.2,0.2-0.2,0.4C100.7,24.6,100.7,24.7,100.7,24.9 M100.3,24.9c0-0.2,0-0.4,0.1-0.6c0.1-0.2,0.2-0.4,0.3-0.5
		c0.1-0.1,0.3-0.3,0.5-0.3c0.2-0.1,0.4-0.1,0.6-0.1s0.4,0,0.6,0.1c0.2,0.1,0.4,0.2,0.5,0.3s0.3,0.3,0.3,0.5c0.1,0.2,0.1,0.4,0.1,0.6
		s0,0.4-0.1,0.6c-0.1,0.2-0.2,0.4-0.3,0.5c-0.1,0.1-0.3,0.3-0.5,0.3c-0.2,0.1-0.4,0.1-0.6,0.1s-0.4,0-0.6-0.1
		c-0.2-0.1-0.4-0.2-0.5-0.3c-0.1-0.1-0.3-0.3-0.3-0.5C100.3,25.3,100.3,25.1,100.3,24.9"/>
	<path class="st0" d="M131.7,13.8h3.1c0-0.4-0.1-0.7-0.4-1c-0.3-0.3-0.6-0.4-1-0.4c-0.3,0-0.5,0-0.7,0.1c-0.2,0.1-0.4,0.2-0.5,0.3
		c-0.1,0.1-0.2,0.3-0.3,0.5C131.7,13.5,131.7,13.7,131.7,13.8 M167.6,16.1c0.3-0.4,0.5-0.8,0.5-1.4c0-0.6-0.2-1-0.5-1.4
		c-0.3-0.4-0.8-0.5-1.4-0.5s-1.1,0.2-1.4,0.5c-0.3,0.4-0.5,0.8-0.5,1.4c0,0.6,0.2,1,0.5,1.4c0.3,0.4,0.8,0.5,1.4,0.5
		S167.3,16.4,167.6,16.1 M191.6,13.8h3.1c0-0.4-0.1-0.7-0.4-1c-0.3-0.3-0.6-0.4-1-0.4c-0.3,0-0.5,0-0.7,0.1
		c-0.2,0.1-0.4,0.2-0.5,0.3c-0.1,0.1-0.2,0.3-0.3,0.5C191.7,13.5,191.6,13.7,191.6,13.8 M216.5,13.8h3.1c0-0.4-0.1-0.7-0.4-1
		c-0.3-0.3-0.6-0.4-1-0.4c-0.3,0-0.5,0-0.7,0.1c-0.2,0.1-0.4,0.2-0.5,0.3c-0.1,0.1-0.2,0.3-0.3,0.5
		C216.6,13.5,216.5,13.7,216.5,13.8 M235.9,16.2c0,0.5-0.1,0.9-0.3,1.2c-0.2,0.3-0.5,0.6-0.8,0.8c-0.3,0.2-0.7,0.3-1.1,0.4
		c-0.4,0.1-0.8,0.1-1.2,0.1c-0.5,0-1.1-0.1-1.6-0.2c-0.5-0.2-1-0.4-1.4-0.8l1.4-1.6c0.2,0.3,0.5,0.5,0.7,0.6
		c0.3,0.1,0.6,0.2,0.9,0.2c0.3,0,0.5,0,0.7-0.1c0.2-0.1,0.3-0.2,0.3-0.4c0-0.2-0.1-0.3-0.3-0.4c-0.2-0.1-0.4-0.2-0.7-0.2
		c-0.3-0.1-0.6-0.1-1-0.2c-0.3-0.1-0.7-0.2-1-0.4c-0.3-0.2-0.5-0.4-0.7-0.7c-0.2-0.3-0.3-0.7-0.3-1.1c0-0.4,0.1-0.8,0.3-1.2
		c0.2-0.3,0.4-0.6,0.7-0.8c0.3-0.2,0.6-0.4,1-0.5c0.4-0.1,0.8-0.1,1.2-0.1c0.5,0,1,0.1,1.5,0.2c0.5,0.1,0.9,0.4,1.3,0.8l-1.4,1.4
		c-0.3-0.4-0.8-0.6-1.4-0.6c-0.2,0-0.4,0-0.6,0.1c-0.2,0.1-0.3,0.3-0.3,0.5c0,0.2,0.1,0.3,0.3,0.4c0.2,0.1,0.4,0.2,0.7,0.2
		c0.3,0.1,0.6,0.1,1,0.2c0.3,0.1,0.7,0.2,1,0.4c0.3,0.2,0.5,0.4,0.7,0.7C235.8,15.3,235.9,15.7,235.9,16.2 M229,16.2
		c0,0.5-0.1,0.9-0.3,1.2c-0.2,0.3-0.5,0.6-0.8,0.8c-0.3,0.2-0.7,0.3-1.1,0.4c-0.4,0.1-0.8,0.1-1.2,0.1c-0.5,0-1.1-0.1-1.6-0.2
		c-0.5-0.2-1-0.4-1.4-0.8l1.4-1.6c0.2,0.3,0.5,0.5,0.7,0.6c0.3,0.1,0.6,0.2,0.9,0.2c0.3,0,0.5,0,0.7-0.1c0.2-0.1,0.3-0.2,0.3-0.4
		c0-0.2-0.1-0.3-0.3-0.4c-0.2-0.1-0.4-0.2-0.7-0.2c-0.3-0.1-0.6-0.1-1-0.2c-0.3-0.1-0.7-0.2-1-0.4s-0.5-0.4-0.7-0.7
		c-0.2-0.3-0.3-0.7-0.3-1.1c0-0.4,0.1-0.8,0.3-1.2c0.2-0.3,0.4-0.6,0.7-0.8c0.3-0.2,0.6-0.4,1-0.5c0.4-0.1,0.8-0.1,1.2-0.1
		c0.5,0,1,0.1,1.5,0.2c0.5,0.1,0.9,0.4,1.3,0.8l-1.4,1.4c-0.3-0.4-0.8-0.6-1.4-0.6c-0.2,0-0.4,0-0.6,0.1c-0.2,0.1-0.3,0.3-0.3,0.5
		c0,0.2,0.1,0.3,0.3,0.4c0.2,0.1,0.4,0.2,0.7,0.2c0.3,0.1,0.6,0.1,1,0.2c0.3,0.1,0.7,0.2,1,0.4c0.3,0.2,0.5,0.4,0.7,0.7
		C228.9,15.3,229,15.7,229,16.2 M221.9,15.4h-5.4c0.1,0.4,0.3,0.8,0.6,1.1c0.3,0.3,0.7,0.4,1.2,0.4c0.4,0,0.7-0.1,1-0.3
		c0.3-0.2,0.5-0.4,0.7-0.7l1.6,1.2c-0.4,0.5-0.8,0.8-1.4,1.1c-0.6,0.3-1.2,0.4-1.8,0.4c-0.6,0-1.1-0.1-1.6-0.3s-1-0.5-1.3-0.8
		c-0.4-0.3-0.7-0.8-0.9-1.3c-0.2-0.5-0.3-1-0.3-1.6c0-0.6,0.1-1.1,0.3-1.6c0.2-0.5,0.5-0.9,0.9-1.3c0.4-0.3,0.8-0.6,1.3-0.8
		s1.1-0.3,1.6-0.3c0.5,0,1,0.1,1.5,0.3s0.8,0.5,1.1,0.8c0.3,0.3,0.5,0.8,0.7,1.3c0.2,0.5,0.2,1,0.2,1.6V15.4z M213.1,18.5h-2.3v-3.7
		c0-0.2,0-0.4,0-0.7c0-0.2-0.1-0.4-0.1-0.6c-0.1-0.2-0.2-0.4-0.4-0.5c-0.2-0.1-0.4-0.2-0.7-0.2c-0.3,0-0.5,0.1-0.7,0.2
		c-0.2,0.1-0.3,0.3-0.4,0.4c-0.1,0.2-0.2,0.4-0.2,0.6c0,0.2,0,0.5,0,0.7v3.8h-2.3v-7.6h2.2v1h0c0.1-0.1,0.2-0.3,0.3-0.4
		c0.1-0.1,0.3-0.3,0.5-0.4c0.2-0.1,0.4-0.2,0.6-0.3c0.2-0.1,0.5-0.1,0.8-0.1c0.6,0,1.1,0.1,1.4,0.3c0.4,0.2,0.6,0.4,0.9,0.8
		c0.2,0.3,0.3,0.7,0.4,1.1c0.1,0.4,0.1,0.9,0.1,1.4V18.5z M204.4,18.5H202V6.7h2.3V18.5z M200.5,18.5h-2.3V6.7h2.3V18.5z M197,15.4
		h-5.4c0.1,0.4,0.3,0.8,0.6,1.1c0.3,0.3,0.7,0.4,1.2,0.4c0.4,0,0.7-0.1,1-0.3c0.3-0.2,0.5-0.4,0.7-0.7l1.6,1.2
		c-0.4,0.5-0.8,0.8-1.4,1.1c-0.6,0.3-1.2,0.4-1.8,0.4c-0.6,0-1.1-0.1-1.6-0.3s-1-0.5-1.3-0.8c-0.4-0.3-0.7-0.8-0.9-1.3
		c-0.2-0.5-0.3-1-0.3-1.6c0-0.6,0.1-1.1,0.3-1.6c0.2-0.5,0.5-0.9,0.9-1.3c0.4-0.3,0.8-0.6,1.3-0.8s1.1-0.3,1.6-0.3
		c0.5,0,1,0.1,1.5,0.3s0.8,0.5,1.1,0.8c0.3,0.3,0.5,0.8,0.7,1.3c0.2,0.5,0.2,1,0.2,1.6V15.4z M189.6,7.4l-3.2,11h-2.2l-2.4-7.6h0
		l-2.4,7.6h-2.1l-3.3-11h2.7l1.8,7.1h0l2.3-7.1h2.3l2.3,7.3h0l1.9-7.3H189.6z M170.5,14.7c0,0.6-0.1,1.1-0.3,1.6
		c-0.2,0.5-0.5,0.9-0.9,1.3c-0.4,0.3-0.8,0.6-1.3,0.8c-0.5,0.2-1.1,0.3-1.6,0.3c-0.6,0-1.1-0.1-1.6-0.3s-1-0.5-1.3-0.8
		c-0.4-0.3-0.7-0.8-0.9-1.3c-0.2-0.5-0.3-1-0.3-1.6c0-0.6,0.1-1.1,0.3-1.6c0.2-0.5,0.5-0.9,0.9-1.3c0.4-0.3,0.8-0.6,1.3-0.8
		s1.1-0.3,1.6-0.3c0.6,0,1.1,0.1,1.6,0.3c0.5,0.2,1,0.5,1.3,0.8c0.4,0.3,0.7,0.8,0.9,1.3C170.3,13.5,170.5,14.1,170.5,14.7
		 M161.5,18.4c-0.3,0.1-0.5,0.2-0.8,0.2c-0.3,0-0.6,0-0.8,0c-0.4,0-0.8,0-1.1-0.1c-0.3-0.1-0.6-0.2-0.9-0.4
		c-0.2-0.2-0.4-0.4-0.6-0.7c-0.1-0.3-0.2-0.6-0.2-1.1v-3.6h-1.5v-1.9h1.5V8.7h2.3v2.2h2.1v1.9h-2.1v2.5c0,0.2,0,0.4,0,0.6
		c0,0.2,0.1,0.3,0.1,0.4c0.1,0.1,0.2,0.2,0.3,0.3c0.2,0.1,0.4,0.1,0.6,0.1c0.1,0,0.3,0,0.5,0c0.2,0,0.4-0.1,0.5-0.2V18.4z
		 M152.1,16.2c0,0.5-0.1,0.9-0.3,1.2c-0.2,0.3-0.5,0.6-0.8,0.8c-0.3,0.2-0.7,0.3-1.1,0.4c-0.4,0.1-0.8,0.1-1.2,0.1
		c-0.5,0-1.1-0.1-1.6-0.2c-0.5-0.2-1-0.4-1.4-0.8l1.4-1.6c0.2,0.3,0.5,0.5,0.7,0.6c0.3,0.1,0.6,0.2,0.9,0.2c0.3,0,0.5,0,0.7-0.1
		c0.2-0.1,0.3-0.2,0.3-0.4c0-0.2-0.1-0.3-0.3-0.4c-0.2-0.1-0.4-0.2-0.7-0.2c-0.3-0.1-0.6-0.1-1-0.2c-0.3-0.1-0.7-0.2-1-0.4
		s-0.5-0.4-0.7-0.7c-0.2-0.3-0.3-0.7-0.3-1.1c0-0.4,0.1-0.8,0.3-1.2c0.2-0.3,0.4-0.6,0.7-0.8c0.3-0.2,0.6-0.4,1-0.5
		c0.4-0.1,0.8-0.1,1.2-0.1c0.5,0,1,0.1,1.5,0.2c0.5,0.1,0.9,0.4,1.3,0.8l-1.4,1.4c-0.3-0.4-0.8-0.6-1.4-0.6c-0.2,0-0.4,0-0.6,0.1
		s-0.3,0.3-0.3,0.5c0,0.2,0.1,0.3,0.3,0.4c0.2,0.1,0.4,0.2,0.7,0.2c0.3,0.1,0.6,0.1,1,0.2c0.3,0.1,0.7,0.2,1,0.4
		c0.3,0.2,0.5,0.4,0.7,0.7C152,15.3,152.1,15.7,152.1,16.2 M145.7,10.9l-3.4,8.8c-0.2,0.4-0.3,0.8-0.5,1.1c-0.1,0.3-0.3,0.6-0.6,0.8
		c-0.2,0.2-0.5,0.4-0.9,0.5s-0.8,0.2-1.4,0.2c-0.6,0-1.2-0.1-1.7-0.3l0.3-1.9c0.4,0.2,0.7,0.2,1.1,0.2c0.3,0,0.5,0,0.6-0.1
		c0.2-0.1,0.3-0.1,0.4-0.2c0.1-0.1,0.2-0.2,0.3-0.4s0.2-0.3,0.2-0.5l0.2-0.4l-3.3-7.6h2.5l1.9,5h0l1.7-5H145.7z M136.9,13.1
		c0.2,0.5,0.2,1,0.2,1.6v0.7h-5.4c0.1,0.4,0.3,0.8,0.6,1.1c0.3,0.3,0.7,0.4,1.2,0.4c0.4,0,0.7-0.1,1-0.3c0.3-0.2,0.5-0.4,0.7-0.7
		l1.6,1.2c-0.4,0.5-0.8,0.8-1.4,1.1s-1.2,0.4-1.8,0.4c-0.6,0-1.1-0.1-1.6-0.3c-0.5-0.2-1-0.5-1.3-0.8c-0.4-0.3-0.7-0.8-0.9-1.3
		c-0.2-0.5-0.3-1-0.3-1.6c0-0.6,0.1-1.1,0.3-1.6c0.2-0.5,0.5-0.9,0.9-1.3c0.4-0.3,0.8-0.6,1.3-0.8c0.5-0.2,1.1-0.3,1.6-0.3
		c0.5,0,1,0.1,1.5,0.3s0.8,0.5,1.1,0.8C136.5,12.2,136.7,12.6,136.9,13.1 M129.5,7.4l-4.9,5.1l5.3,5.9h-3.4l-4.5-5.2v5.2h-2.4v-11
		h2.4V12l4.3-4.6H129.5z M243,26.4V1.3H102.7l13.6,25.2H243z"/>
</g>
</svg>
